<svg id="svg1" width="96.666mm" height="78mm" version="1.1" viewBox="0 0 96.666 78" xml:space="preserve"
     xmlns="http://www.w3.org/2000/svg">
    <g id="wheel" transform="matrix(.017639 0 0 -.017639 -4.5702 87.395)"><path id="path26" transform="translate(4.7244e-7 -1.5354e-5)" d="m1903.3 4083.7c7.5165 28.5 15.033 57 42.28 87.536s74.226 63.107 121.99 90.511 96.305 49.64 154.24 74.539 125.28 52.459 190.42 75.322 128.09 41.028 189.32 55.278c61.228 14.25 120.73 24.585 165.36 29.126s74.382 3.2885 86.91-2.0357 7.8297-14.72 3.1319-24.116c-16.599-3.4451-33.198-6.8901-46.508-12.371s-23.332-12.997-32.102-25.055c-8.7693-12.058-16.286-28.657-27.56-29.909-11.275-1.2528-26.308 12.841-67.962 12.058-41.654-0.783-109.93-16.442-158.47-30.379-48.544-13.937-77.357-26.151-86.44-46.195s1.5659-47.918 14.72-74.695c13.154-26.778 28.813-52.459 39.775-72.346 10.962-19.887 17.225-33.981 12.841-35.703-4.3846-1.7226-19.418 8.9258-32.258 22.08s-23.489 28.813-40.871 53.712c-17.382 24.898-41.497 59.036-77.201 65.77-35.703 6.7335-82.995-13.937-102.57-37.739-19.574-23.802-11.431-50.736-2.1923-75.791 9.239-25.055 19.574-48.231 28.5-69.841 8.9259-21.61 16.442-41.654 15.346-54.182-1.0961-12.528-10.805-17.538-21.923-8.1429-11.118 9.3957-23.646 33.198-38.992 67.179s-33.511 78.14-86.127 74.382c-52.616-3.7583-139.68-55.434-172.57-97.871-32.885-42.437-11.588-75.635 11.118-106.48s46.822-59.349 74.539-90.981c27.717-31.632 59.036-66.396 80.959-94.896 21.923-28.5 34.451-50.736 36.956-64.047 2.5055-13.31-5.011-17.695-15.346-13.937-10.335 3.7582-23.489 15.659-46.352 38.679s-55.434 57.157-92.547 112.43c-37.113 55.278-78.767 131.7-120.42 208.11"/>
        <path id="path29"
              d="m1105.8 2077.9-136.38-10.225c40.807-11.326 55.985-31.272 74.619-94.629 36-121 164.98-379.02 260.98-520.02 927-1368 3017-1174 3684 341.02 85 194 83.996 180 15.996 180-30 0-77.008 5.9786-103.01 12.979-96 24-134.99-3.9844-211.99-153.98-41-78-78.002-147-82.002-151s-47.994 26.002-98.994 67.002c-50 42-97.008 69.988-103.01 62.988-7-6-9.0137-14.988-4.0137-17.988 197-146 195.02-143.01 131.02-230.01l-46.992-62.988-146.02 99.99c-80 55-154 98.014-164 94.014-10-3 46.998-50.004 128-104 80-55 150.01-102 155.01-105 11-9-203.01-226.03-222.01-226.03-21 0-133 120.01-172 185.01-19 30-39.988 55.02-47.988 55.02-29 0-2.9942-55.029 81.006-165.03 99-131 97.984-134.99-56.016-233.99-124-80-131.99-77.986-174.99 34.014-21 55-39.008 80.996-43.008 60.996-3-18 8.0195-60.014 25.02-94.014 43-83 39.986-94.984-34.014-123.98-36-14-70.992-28.992-76.992-31.992-7-4-42.018 50.988-78.018 122.99-35 72-72.998 130.99-82.998 130.99-9 0 10.008-53.975 43.008-118.97 78-155 78.008-155.02-46.992-191.02-135-39-237.01-53.004-223.01-29.004 6 9-0.01 93.998-13.008 188-14 94-30.998 161-37.998 149-8-12-19.982 1.9922-26.982 31.992-8 30-18.002 51.025-22.002 46.025-5-4 9-79.021 30-167.02 22-87 39.99-188 39.99-224v-64.98h-172c-152 0-170.99 3.9883-159.99 32.988 11 28 50.002 267.01 52.002 312.01 2 84-40.014-18-49.014-120-22-229-20-225-120-225h-87.978l7.998 184.98c5 122 1.9766 165.01-9.0234 125.01-10-33-17.98-111.99-19.98-174.99-1-63-9.0215-115.02-17.022-115.02s-80.986 15.014-160.99 34.014l-144.99 34.014 12.978 60.996c7 33 25.02 90.998 40.02 128 32 77 34.982 102.98 11.982 102.98-9 0-31.977-42.98-50.977-94.98-64-175-67.006-176.01-231.01-94.014l-142 73.008 40.986 58.008c51 71 26 76.998-30 7.9981l-40.986-50.01-65.01 51.006c-55 44-62.008 57.992-43.008 91.992 12 22 17.016 45.01 11.016 50.01-5 6-20.018-9.0136-33.018-34.014-28-52-267.98 158.01-245.98 215.01 7 18-5.0136 32.99-34.014 39.99-45 12-206 240.01-188 268.01 5 9 85.004 44.014 179 79.014 94 36 175 72.002 181 82.002 18 29-18.008 19.002-193.01-52.998-190-79-206.98-78.025-244.98 13.975-27 64-32.006 66.012-156.01 72.012-162.87 7.9934-211.91 51.917-112.24 101.87zm114.23-107.87 41.016-49.98c22-27 76.992-115 121.99-195 84-151 379-500.01 473-560.01 30-19 58.984-39 63.984-45 28-28 141.02-99.99 159.02-99.99 12 0 20.977-7.0215 20.977-17.022 0-16 70-48.998 300-143 546-222 1313-110.99 1780 259.01 49 39 100.99 79.996 115.99 90.996 137 104 262.01 263.99 500.01 639.99 84 132 80.99 84-5.0097-90-399.93-809.18-1240.2-1150.1-2019.3-1041.3-641.08 89.482-1240.8 483.39-1519.7 1171.3z"
              stroke="#3a7a84"/>
        <path id="path1" transform="translate(4.7244e-7 -1.5354e-5)"
              d="m4919.6 3206.4c26.413-61.516-86.95-35.106-52.299-60.371-54.033-41.846 87.781 0.8903 104.63-131.25 29-178 36.121-352.79 15.121-299.79-6 14-25 25-43 25-23 0-26 6-10 22 14 14 16 44 5 85-10 35-23 95-29 133-19 113-30 139-60 127-18-7-24-31-16-77-561.44-233.17 38.331-11.636 46-242 0-54-9-65-60-75-106-21-70-57 50-50 61 4 110 0 110-8s10-15 21-15c12 0 16 8 10 19-16 26 60 46 112 30-59.539 332.15-102.03 548.17-145.21 578.35m-1661.5 1454.3c-104.21 24.066-1043.3-75.604-1381.3-290.6-94-60-95-63-83-141 16-104 12-103 112-35 275 189 610 303 985 335 117 11 175.5 30.691 257.93 60.114"/>
        <path id="path22"
              d="m1840 1680c0-12-41-49-90-84-56-40-83-71-71-83 11-11 53 11 109 59 86 74 116 128 72 128-11 0-20-9-20-20z"/>
        <path id="path27"
              d="m3842.9 4666.3c242.45-88.356 404.11-212.55 509.24-323.78l-70.44-49.447-60.057 53.074c-94.065 117.2-293.68 188.7-359.78 225.53z"/>
        <path id="path32"
              d="m3910.5 4494.9c42.483-4.6904 226.19-161.95 287.01-233.86 60.816-71.913-45.177-37.205-45.177-37.205l-47.835 61.122s-68.291-5.0073-69.095-122.24c-0.2005-29.245-68.955-117.03-61.122-15.945 42.38 109.06 74.41 191.34 74.41 191.34 23.826-21.287-75.717 54.56-111.61 79.724 0 0-69.058 81.758-26.575 77.067z"/>
        <path id="path38" transform="translate(4.7244e-7 -1.5354e-5)"
              d="m1546.6 2772.4c-134-80.74-349.56-51.411-313.56 82.589 12 45 340.82 60.713 347.66 91.506-167.52 8.0688-314.08-9.5335-292.08 76.466 63 251 43.712 233.04 196.48 213.71-89.233 75.671-140.05 74.315-63.054 234.32 31.437 64.799 57.658 103.22 80.77 134.81-119.74 36.777-322.77-468.81-322.77-748.81 0-42-9-77-20-77s-20-17-20-39c0-21-9-44-20-51-26-16-25 64 1 230 52 335 213 715 384 908 32 37 25.028 52.37-30.13 178.87-165.16-135.5-372.87-496.87-421.87-667.87-59-205-93-373-105-514l-14-165h115c98 0 116 6 125 40 9 33 17 36 39 17 16-13 24-35 19-50 95.859-6.145 363.37 78.944 429.06 142.88"/></g>
    <g id="name" transform="translate(-38.337 -114.45)">
            <path id="path20" transform="matrix(.017639 0 0 -.017639 33.767 201.84)"
                  d="m3625 1925c-19-6-25-94-25-348v-339l190 12v89c0 82 4 89 63 105 164 43 229 305 106 425-47 46-260 82-334 56zm234-164c32-59 25-111-19-151-40-36-40-35-40 77 0 115 22 143 59 74z"/>
        <path id="path19" transform="matrix(.017639 0 0 -.017639 33.767 201.84)"
              d="m3271 1791c-63-173-71-173-150 0-58 128-59 129-140 129h-81l-4-210c-3-115-5-265-5-333l-1-123 90-2 89-2-6 160c-7 173 0 176 76 34 73-135 118-128 175 26l44 120 2-330h91c114 0 111-11 94 360l-15 310-204 12z"/>

        <path id="path23" transform="matrix(.017639 0 0 -.017639 33.767 201.84)"
              d="m2393.5 1260c82.159 2.3997 146.31 10.428 152.51 26.953 23 60 135 52 148-10 9-49 20-57 79-57 97 0 98 17 22 373l-67 317-82 6-83 6-73-235c-41-129-79-267-86-306l-8.3494-69.007m262.35 153.01c1-14-16-25-38-25-34 0-39 9-28 55 25 104 56 90 66-30z"/>
        <path id="path21" transform="matrix(.017639 0 0 -.017639 33.767 201.84)"
              d="m2388.2 1310-7.1813 69c-10 64-18 71-96 85-115 19-125 28-125 103 0 91 41 139 121 141 67 2 125 133 87 195-17 28-174 18-242-16-184-90-216-509-45-597 45.593-23.966 191.64-34.606 308.12-31.322"/>
        <path id="path17" transform="matrix(.017639 0 0 -.017639 33.767 201.84)"
              d="m5454 2585c-5-8-4-130 1-270l10-255h128c140 0 162 18 138 111-11 45-20 50-72 39-55-12-59-9-59 48 0 49 9 62 40 62 59 0 56 95-3 104-77 11-68 56 11 56 67 0 72 4 72 60v60h-129c-71 0-133-7-137-15z"/>


        <path id="path16" transform="matrix(.017639 0 0 -.017639 33.767 201.84)"
              d="m5094 2587c-32-9-35-35-30-264l6-253 84-6c172-13 279 111 261 301-15 158-167 263-321 222zm195-199c13-53-35-188-68-188-12 0-21 52-21 128 0 136 59 176 89 60z"/>
        <path id="path15" transform="matrix(.017639 0 0 -.017639 33.767 201.84)"
              d="m4650 2587c-37-8-40-27-46-269l-6-261 76 7 76 6-6 130-5 130 73-135c68-125 78-135 141-135h67v520h-140l-2-250-69 135c-38 74-81 134-94 132-14-1-43-6-65-10z"/>
        <path id="path14" transform="matrix(.017639 0 0 -.017639 33.767 201.84)"
              d="m4307 2570c-4-12-6-130-3-261l6-239 270-12v71c0 68-3 71-70 71-64 0-70 5-70 60 0 51 8 60 50 60 40 0 50 10 50 50s-10 50-50 50c-31 0-50 11-50 30 0 20 20 30 58 30 57 0 103 85 60 112-32 19-242 1-251-22z"/>
        <path id="path13" transform="matrix(.017639 0 0 -.017639 33.767 201.84)"
              d="m3641 2560c0-16 13-124 29-240 16-115 29-221 29-235 1-17 34-25 99-25h97l14 90c16 108 37 103 71-19 25-89 27-91 108-91h82l45 225c24 124 50 250 57 281 13 55 11 57-64 50l-78-6-17-115c-21-140-45-147-62-19-26 186-139 210-183 38-42-167-56-174-67-36l-11 128-75 2c-55 1-75-6-74-28z"/>
        <path id="path18" transform="matrix(.017639 0 0 -.017639 33.767 201.84)"
              d="m3329 2531c-91-91-50-193 97-243 100-34 83-79-29-73-86 4-93 1-103-50-15-73 1-85 128-98 230-24 314 191 113 290-113 56-126 103-27 103 66 0 92 25 92 92 0 53-213 37-271-21z"/>
        <path id="path12" transform="matrix(.017639 0 0 -.017639 33.767 201.84)"
              d="m2933 2587c-38-39-12-127 37-127h50v-402l150 12 2 200 1 200 54 6c44 6 53 17 53 65v59h-167c-91 0-172-6-180-13z"/>
        <g id="ae"><path id="path4" transform="matrix(.017639 0 0 -.017639 33.767 201.84)" d="m2704 2736c-17-17-17-30-1-50 26-31 77-35 77-6 0 12 17 10 41-5 33-21 43-20 59 5 28 44-27 95-67 62-20-16-34-17-42-3-17 27-37 27-67-3z"/>
            <path id="path11" transform="matrix(.017639 0 0 -.017639 33.767 201.84)"
                  d="m2733 2585c-25-41-151-492-142-507 20-31 129-21 129 12 0 48 101 39 114-10 11-40 112-59 133-25 10 16-95 489-116 524-15 24-104 29-118 6zm72-315c7-38 1-50-25-50s-32 12-25 50c5 28 17 50 25 50s20-22 25-50z"/></g>
        <path id="path10" transform="matrix(.017639 0 0 -.017639 33.767 201.84)"
              d="m2276.3 2497c5-21 25.651-36.993 54.651-36.993 49 0 49-2 49-201v-201l150 12-2 410h56c49 0 56 8 56 60v61l-250-4c-43.7-0.95-82.328-2.2008-114.23-3.6255"/>
        <path id="path6" transform="matrix(.017639 0 0 -.017639 33.767 201.84)"
              d="m2272.8 2593.4c-78.976-3.0742-139.37-6.9578-142.79-10.374-6-5-10-125-10-266v-257h140l2 235c2 129 11.228 225.11 9.6511 201.41"/>
        <path id="path9" transform="matrix(.017639 0 0 -.017639 33.767 201.84)"
              d="m1834 2588c-8-8-14-130-14-271v-257h280v70c0 67-3 70-72 70h-72l14 390-61 6c-33 3-67-1-75-8z"/>
        <path id="path8" transform="matrix(.017639 0 0 -.017639 33.767 201.84)"
              d="m1653 2585c-5-8-12-127-16-265l-7-250h140l6 265 5 265h-59c-33 0-64-7-69-15z"/>
        <path id="path7" transform="matrix(.017639 0 0 -.017639 33.767 201.84)"
              d="m1300 2587c-25-7-30-55-32-270l-2-261 118 8c187 14 289 163 187 275-25 28-28 47-12 90 47 121-90 205-259 158zm149-105c14-24-8-82-31-82-10 0-18 23-18 50 0 49 27 67 49 32zm21-182c19-31-9-100-41-100-19 0-29 21-29 60 0 59 43 84 70 40z"/>
        <path id="path30" transform="matrix(.017639 0 0 -.017639 33.767 201.84)"
              d="m1005.8 2583.2c-27.125-0.4717-50.481-10.132-77.842-29.473-149.07-104.72-124.53-433.99 35.859-468.9 3.0921-0.7086 6.0555-1.4434 8.877-2.2265l128.64 9.6679 0.2343 0.1172c165.11 82.081 168.88 396.24 4.7168 465.12-42.456 17.454-73.364 26.165-100.49 25.693zm21.006-125.42c23.159-0.2025 44.52-31.775 49.16-101.81 7-102-21.01-176.02-65.01-176.02-32 0-51.006 44-51.006 120 0 99.438 35.119 158.1 66.855 157.82z"
              stroke-width=".94346"/>
        <path id="path5" transform="matrix(.017639 0 0 -.017639 33.767 201.84)"
              d="m273 2405c-24-357-26-345 69-345h82l-14 120c-16 140 9 158 56 38 42-107 91-99 137 22l35 90 2-272 75 6c67 5 75 12 74 61-1 30-3 150-5 265l-4 210h-173l-34-109c-47-148-59-149-119-10-46 106-57 119-109 119h-59z"/></g>
    <g id="fist"><path id="path3" transform="matrix(.017639 0 0 -.017639 -4.5702 87.395)" d="m4493 3285c-63-26-93-28-160-10-94 25-114 18-70-27 74-74 317-41 317 43 0 16-2 28-5 27s-40-16-82-33z"/>
        <path id="path24" transform="matrix(.017639 0 0 -.017639 -4.5702 87.395)"
              d="m3949.4 3035.6c-24.339-44.311-101.83-158.67-145.22-222.89-25.572-37.948-48.036-70.189-66.177-101.68-44-74-27-97 26-36 17 19 116 161 221 315l191 280 2 356c4 435 67 614 215 614 17 0 89 27 160 60 217 101 379 35 321-130-15-44-34-114-42-155-17-93-30-93-88-3-43 66-54 71-125 64-44-4-79-4-79 0 0 26 88 124 121 134 62 20 48 57-16 41-30-8-75-14-100-15-34 0-45-12-45-47 0-87-63-188-134-213-36-13-66-36-66-50 0-44 84-29 217 39l126 65 44-53c24-30 73-91 110-137 37-45 99-98 136-116 87-41 83-95-11-158-123-83-267-41-291 83-13 70-51 100-51 41 0-17-22-40-50-50-67-26-63-60 7-60 59 0 103-85 103-197 0-63 39-52 52 14 13 62 150 80 236 30 83-48-121-247-255-247-94-1-145-25-124-59 8-13-7-57-33-97-89-139-196-348-196-383 0-49 68 14 125 115 41.758 65.739 65.76 72.07 136 234 54 103 75 119 182 138 52 9 99 41 165 112 63.934 59.659 79.828 66.363 93.33 90.363 23.857 32.967 42.703 64.846 82.67 64.637 149.73-46.725 310 374 176 508-33 33-60 78-60 99 0 107-117 258-199 258-19 0-56 24-83 53-26 29-86 70-133 90l-84 39-126-49c-165.87-64.206-219.87-57.585-258.31-73.366-38.713-15.894-80.008-56.206-106.69-88.634-109-142-126-230-120-588l6-326-63-108c-35-60-62.363-117.4-69.363-118.4m1069.4 1080.4c75-53 96-136 67-271-35-163-60-180-161-109-104 72-106 77-70 147 17 33 31 82 31 110 0 129 53 179 133 123zm176-302c109-110-21-409-179-409-110 0-120 14-49 74 32 27 59 65 59 83 0 19 18 49 40 68 21 19 49 75 62 124 26 103 24 102 67 60z"/></g>
    <g id="flag"><path id="path34" d="m25.073 3.9713c-0.48658-0.040933-0.48223 0.62527-0.32298 2.3099-0.42737 1.5503-1.1552 2.8857-1.7813 4.7811-0.15737 2.0361-0.7219 3.5901-0.56224 5.1098 0.48778 1.3791 0.93469 3.9023 1.0309 5.578-0.23187 1.4413-1.0309 1.6872-1.0309 1.6872s-0.7431 3.5373-0.65629 4.7816c0.08681 1.2443 0.16752 1.1945 0.65629 2.3435 0.48877 1.149 1.8534 4.5438 2.9528 6.1877s1.7348 2.3435 1.7348 2.3435l0.51573-0.32815s0.23574-3.7899 0.65577-6.0467c0.63587-1.9044 1.8753-3.9843 1.8753-3.9843s1.379-1.0568 0.93741-1.4066c-0.28042-0.22211-0.95215 0.87131-1.7343 1.4531-0.85216-0.75742-1.0785-2.3906-1.0785-2.3906s0.78272-3.4592 1.6407-3.4685c0.65642 2.1878 3.337 8.0011 6.0002 12.563 1.4568 1.7735 2.2552 2.6034 2.4376 3.7031s0.13608-0.12362 0.74982 0.89038c0.14852 0.24539 0.4222-0.74982 0.4222-0.74982s-5.6766-10.819-8.4377-16.547c-2.592-5.3777-4.1587-12.376-4.7346-15.703-0.21618-1.4659-0.21712-1.8447-0.16382-1.8557-0.19893-0.41814-0.54781-1.0719-0.86713-1.1911-0.090531-0.033802-0.17027-0.054097-0.23978-0.059945zm1.1069 1.2511c0.09386 0.19729 0.16382 0.35553 0.16382 0.35553s-0.10978-0.36664-0.16382-0.35553zm-1.1017 3.2618c0.02281 0.47344 0.28237 0.97109 0.37569 1.6759 0.51256 3.1632 2.6521 8.3067 3.7962 11.684-0.87505 0.9153-2.6246 5.719-2.6246 5.719s-2.7498-7.8627-2.9063-11.062c-0.43777-4.3715 0.77358-7.1116 1.3591-8.016zm-1.1364 14.184c0.08483-9e-3 0.18192 0.0092 0.29249 0.06666 0.26157 0.35357 0.39734 1.0656 0.46922 2.297 0.35313 1.0908 1.3297 3.6432 1.9218 4.6871 0.6859 0.29387 0.19026-0.15919 0.4687 0.14108 0.79408 0.44089 0.42168 1.9218 0.42168 1.9218s-0.99961 2.9018-1.078 4.5935c-0.92211-1.6832-3.4803-6.7779-3.8437-9.047 0.10538-2.316 0.84336-4.0778 0.84336-4.0778s0.13677-0.54332 0.50436-0.58239z"/></g>
    <g id="tent"><path id="path25" transform="matrix(.017639 0 0 -.017639 -4.5702 87.395)" d="m3758.3 2817.3c-21-33-84.336 15.664-65.336 49.664 8 15 4 15-13-1-19-18-37-18-66-3-112 60-305 39-319-34-12-65 41-95 135-78 46 9 70 6 70-9 0-13 37-22 90-22 69 0 90 7 90 32 0 19 11 28 28 22 15-6 37-1 50 12m73 1954c-11 131-21 165-57 190-60 42-66 40-239-83l-156-111c-76.64-17.468-138.07-75.69-203-120-306-201-675.82-392.47-691-416-67.968-105.36-167.09-310.16-320-546l-34-58c-19-32-30-64-24-70 17-17 189 232 293 425 87 162 107 185 213 247 390 226 716 422 845 509 104 69 144 87 133 61-8-21-40-105-71-188-194-519-641-1284-957-1640-95-106-71-134 31-37 338 323 826 1144 1016 1712 118 352 132 360 160 85 33-319 238.17-986.63 318.17-1052.6 40-34 8.5587 110.98-50.166 205.63-34 98-66 191-71 207-0.4616 1.482-25 76-43 135m28.398-1018.9c-2.6969 6.1645-126.15 408.67-172.4 955.91-31 366-54 568-66 581-5 5-29-70-53-167-85-348-98-398-137-546-119-445-153-556-227-725-123-282-137-315-210-463-71-145-72-197-2-112 163 197 454 1004 567 1569 18 95 36 170 39 166 2-3 15-131 28-284 24-291 109-736 180-939 11.435-33.786 32.385-122.27 42.395-149.81 5.0829-13.985 24.443 60.957 24.443 51.834m-1707.8 685.98c-200.71-426.14 0 0 0 0z"/></g></svg>
